<svg xmlns="http://www.w3.org/2000/svg" xmlns:xlink="http://www.w3.org/1999/xlink" version="1.1" id="Your_Icon" x="0px" y="0px" width="100px" height="100px" viewBox="0 0 100 100" style="enable-background:new 0 0 100 100;" xml:space="preserve">
<g>
	<g>
		<path d="M50.001,0C22.387,0,0,22.383,0,50c0,27.611,22.387,50,50.001,50C77.614,100,100,77.611,100,50    C100,22.383,77.614,0,50.001,0z M81.482,53.991H66.805v24.673H26.729l-5.504-5.506V33.085H45.9V18.359h20.904v14.726h14.678    V53.991z"/>
	</g>
	<g>
		<polygon points="62.556,22.592 50.224,22.592 50.224,37.148 35.666,37.148 35.666,49.479 50.224,49.479 50.224,64.037     62.556,64.037 62.556,49.479 77.113,49.479 77.113,37.148 62.556,37.148   "/>
	</g>
</g>
</svg>